# xmcd
#
# Track frame offsets:
#	150
#	16050
#	37265
#	56965
#	83797
#	102210
#	116527
#	133617
#	152132
#	167680
#	186507
#	206000
#	223567
#	240165
#	258335
#	276115
#
# Disc length: 3940 seconds
#
# Revision: 1
# Processed by: cddbd v1.5.1PL0 Copyright (c) Steve Scherf et al.
# Submitted via: audiograbber 1.83.01
#
DISCID=e00f6210
DTITLE=Rowleens Vaughn - Love Songs on Guitar
DYEAR=1900
DGENRE=Easy Listening
TTITLE0=Will of the Wind
TTITLE1=Have you ever really loved a woman?
TTITLE2=Remember me this way
TTITLE3=You are not alone
TTITLE4=I can love you like that
TTITLE5=I will
TTITLE6=Water runs dry
TTITLE7=Back for good
TTITLE8=Goodnight girl
TTITLE9=Julia says
TTITLE10=More than just the two of us
TTITLE11=I can't tell you why
TTITLE12=Can you feel the love tonight
TTITLE13=Love is all around
TTITLE14=Out of the blue
TTITLE15=25 minutes
EXTD=
EXTT0=
EXTT1=
EXTT2=
EXTT3=
EXTT4=
EXTT5=
EXTT6=
EXTT7=
EXTT8=
EXTT9=
EXTT10=
EXTT11=
EXTT12=
EXTT13=
EXTT14=
EXTT15=
PLAYORDER=
